#!OML:ASF H:\Terrain\Walking\May29\JustinRory\Justin.ASF
:FULLY-SPECIFIED
:DEGREES
80
root 8.5979 17.9484 5.91951 -179.926 -10.5365 -178.219
lowerback 3.10892 0.948746 0.39192
upperback 0.705563 1.25922 1.39268
thorax -1.04183 0.61435 1.15756
lowerneck -10.6935 -10.9942 -16.1619
upperneck 16.3163 -14.3208 9.08261
head 8.67567 -7.13728 3.90191
rclavicle -1.48343e-014 -8.34896e-015
rhumerus -15.0001 13.1423 -85.9919
rradius 73.7086
rwrist -38.9945
rhand -24.891 17.2266
rfingers 7.12502
rthumb 1.61681 -12.747
lclavicle -1.48343e-014 -8.34896e-015
lhumerus -40.971 12.6082 71.0751
lradius 32.5124
lwrist -8.70004
lhand -0.349751 32.5585
lfingers 7.12502
lthumb 25.2553 60.907
rfemur -15.5408 -4.62922 23.3953
rtibia 24.031
rfoot -5.93774 -2.51688
rtoes 8.34436
lfemur -3.32213 0.865561 -14.1632
ltibia 44.1363
lfoot 7.59636 -17.8022
ltoes -4.6096
81
root 8.59989 17.9532 5.85035 -179.911 -10.417 -177.86
lowerback 3.15579 0.875661 0.785826
upperback 0.633341 1.17462 1.44955
thorax -1.13375 0.569966 0.997138
lowerneck -10.5171 -11.0022 -15.9999
upperneck 16.1888 -14.3944 9.13321
head 8.60184 -7.16495 3.89367
rclavicle 2.33945e-014 -1.2921e-014
rhumerus -14.4024 13.6482 -85.7028
rradius 73.4903
rwrist -39.2199
rhand -26.1793 19.7685
rfingers 7.12502
rthumb 0.372585 -10.2109
lclavicle 2.33945e-014 -1.2921e-014
lhumerus -41.1919 13.3181 70.6094
lradius 31.2401
lwrist -9.51309
lhand -0.435447 32.2229
lfingers 7.12502
lthumb 25.1732 60.5829
rfemur -15.2672 -4.74738 23.8523
rtibia 23.7662
rfoot -5.95653 -2.35483
rtoes 7.98944
lfemur -4.06487 1.12564 -13.6047
ltibia 45.1889
lfoot 7.69935 -18.5316
ltoes -10.5749
82
root 8.60746 17.9548 5.78499 -179.915 -10.2397 -177.588
lowerback 3.35919 0.776119 0.92125
upperback 0.545724 1.04995 1.57691
thorax -1.33586 0.505498 1.05356
lowerneck -10.4707 -11.0754 -15.9267
upperneck 16.1586 -14.5172 9.12005
head 8.59269 -7.22178 3.86167
rclavicle -1.44989e-014 1.23246e-014
rhumerus -14.1788 14.2188 -85.5296
rradius 73.406
rwrist -39.4571
rhand -24.6241 18.2436
rfingers 7.12502
rthumb 1.87464 -11.728
lclavicle -1.44989e-014 1.23246e-014
lhumerus -41.5576 14.5476 69.9791
lradius 29.9947
lwrist -10.5359
lhand -0.870248 32.1406
lfingers 7.12502
lthumb 24.7566 60.5585
rfemur -14.9456 -4.56252 24.2194
rtibia 23.4446
rfoot -6.10581 -2.3224
rtoes 7.5683
lfemur -4.74614 1.31168 -13.1098
ltibia 46.2331
lfoot 8.36662 -19.0907
ltoes -13.5106
83
root 8.61713 17.9578 5.72254 -180.029 -9.98712 -177.299
lowerback 3.55877 0.701541 1.26967
upperback 0.589452 0.963376 1.50308
thorax -1.39456 0.459368 0.784315
lowerneck -10.6704 -11.2162 -15.731
upperneck 16.2982 -14.7711 9.27647
head 8.70552 -7.3133 3.83372
rclavicle 6.21202e-016 -1.21259e-014
rhumerus -13.5933 14.7395 -85.5787
rradius 72.9392
rwrist -39.3367
rhand -22.8554 15.9711
rfingers 7.12502
rthumb 3.58272 -13.9785
lclavicle 6.21202e-016 -1.21259e-014
lhumerus -41.6794 15.5578 69.176
lradius 28.7966
lwrist -11.3909
lhand -1.00691 32.7299
lfingers 7.12502
lthumb 24.6256 61.1657
rfemur -14.5669 -4.543 24.6111
rtibia 23.2103
rfoot -6.2576 -2.08456
rtoes 7.37231
lfemur -5.18272 1.41677 -12.5258
ltibia 47.2181
lfoot 10.0995 -19.1986
ltoes -10.3507
84
root 8.62204 17.9679 5.65762 -180.113 -9.70907 -177.345
lowerback 3.68513 0.703469 1.06254
upperback 0.650234 0.957947 1.55456
thorax -1.40726 0.456672 0.952346
lowerneck -10.7642 -11.3182 -15.9294
upperneck 16.5297 -14.9417 9.45898
head 8.85466 -7.39157 3.88913
rclavicle 2.77429e-014 -2.78299e-015
rhumerus -13.0376 15.5322 -85.1986
rradius 72.3847
rwrist -39.6463
rhand -24.0394 16.8923
rfingers 7.12502
rthumb 2.43935 -13.0735
lclavicle 2.77429e-014 -2.78299e-015
lhumerus -41.8024 16.5795 68.77
lradius 27.6799
lwrist -12.1153
lhand -0.889266 33.0941
lfingers 7.12502
lthumb 24.7383 61.5145
rfemur -14.1479 -4.8254 24.624
rtibia 22.9924
rfoot -6.30848 -1.57931
rtoes 7.52008
lfemur -5.54882 1.57895 -12.3378
ltibia 48.148
lfoot 11.6428 -19.2993
ltoes -7.40236
85
root 8.62945 17.9718 5.59141 -180.09 -9.37758 -177.437
lowerback 3.53879 0.737208 0.729575
upperback 0.812986 0.981721 1.6422
thorax -1.16592 0.468415 1.23074
lowerneck -10.773 -11.431 -16.045
upperneck 16.4288 -15.0889 9.58082
head 8.86172 -7.45338 3.92337
rclavicle 1.9953e-014 -1.74931e-014
rhumerus -12.5326 16.2536 -84.7685
rradius 71.7648
rwrist -39.9019
rhand -21.8793 13.732
rfingers 7.12502
rthumb 4.52532 -16.1997
lclavicle 1.9953e-014 -1.74931e-014
lhumerus -41.6717 17.8768 68.3898
lradius 26.4765
lwrist -12.966
lhand -1.00003 33.0429
lfingers 7.12502
lthumb 24.6322 61.4778
rfemur -13.7859 -4.66197 24.5868
rtibia 22.703
rfoot -6.2019 -1.42216
rtoes 8.86112
lfemur -6.03041 1.80572 -12.2256
ltibia 49.0841
lfoot 12.6211 -19.6123
ltoes -6.16256
86
root 8.63739 17.9702 5.53091 -180.093 -9.03561 -176.947
lowerback 3.51688 0.71432 1.00951
upperback 0.840383 0.953246 1.85114
thorax -1.12393 0.449358 1.29004
lowerneck -10.8253 -11.5052 -15.8637
upperneck 16.21 -15.1431 9.41787
head 8.77551 -7.473 3.83289
rclavicle 2.40157e-014 -3.77691e-015
rhumerus -12.2126 16.3821 -84.8451
rradius 70.7532
rwrist -39.3132
rhand -22.2977 15.0922
rfingers 7.12502
rthumb 4.12133 -14.8477
lclavicle 2.40157e-014 -3.77691e-015
lhumerus -41.6936 19.0978 67.9068
lradius 25.2597
lwrist -13.7082
lhand -1.11036 33.1663
lfingers 7.12502
lthumb 24.5264 61.6156
rfemur -13.4598 -4.27473 25.1944
rtibia 22.3133
rfoot -6.00749 -1.4516
rtoes 11.0942
lfemur -6.64995 2.0271 -11.4479
ltibia 50.1189
lfoot 13.2761 -20.1038
ltoes -6.60729
87
root 8.6458 17.9727 5.48097 -180.083 -8.70572 -176.28
lowerback 3.67692 0.752255 1.63131
upperback 0.672815 1.03175 1.92197
thorax -1.37656 0.483802 1.00766
lowerneck -10.5896 -11.5959 -15.7685
upperneck 16.1341 -15.3808 9.64091
head 8.75029 -7.57351 3.86833
rclavicle 1.31074e-014 1.37161e-014
rhumerus -12.358 14.7958 -85.7791
rradius 69.6111
rwrist -37.441
rhand -22.3495 16.402
rfingers 7.12502
rthumb 4.07132 -13.5388
lclavicle 1.31074e-014 1.37161e-014
lhumerus -41.8369 19.7443 67.2651
lradius 24.2029
lwrist -14.3307
lhand -0.916547 33.2727
lfingers 7.12502
lthumb 24.7122 61.6967
rfemur -13.1743 -3.99612 26.0135
rtibia 21.8378
rfoot -5.75466 -1.43364
rtoes 11.8303
lfemur -7.45263 2.37116 -10.4293
ltibia 51.313
lfoot 13.5047 -20.8223
ltoes -5.5592
88
root 8.65784 17.9763 5.44422 -179.998 -8.34582 -175.542
lowerback 3.81559 0.835302 2.26335
upperback 0.544849 1.17088 1.98213
thorax -1.57459 0.546024 0.70604
lowerneck -10.1669 -11.8025 -15.701
upperneck 15.9455 -15.85 10.0879
head 8.7075 -7.77531 3.956
rclavicle 8.33032e-015 2.5842e-014
rhumerus -12.3617 17.5145 -85.111
rradius 69.0043
rwrist -39.3599
rhand -23.1862 16.1245
rfingers 7.12502
rthumb 3.26332 -13.8303
lclavicle 8.33032e-015 2.5842e-014
lhumerus -41.8625 20.7377 66.3921
lradius 23.2736
lwrist -15.4947
lhand -0.801283 33.2505
lfingers 7.12502
lthumb 24.8227 61.6593
rfemur -13.0549 -3.57253 26.9321
rtibia 21.4126
rfoot -5.52808 -1.57893
rtoes 11.4157
lfemur -8.42796 2.84782 -9.2996
ltibia 52.5198
lfoot 13.6499 -21.3599
ltoes -6.23271
89
root 8.68371 17.965 5.42822 -179.831 -7.9219 -174.406
lowerback 4.01615 0.909462 2.9466
upperback 0.424436 1.295 2.3472
thorax -1.80291 0.59186 0.688921
lowerneck -10.1024 -11.9543 -15.644
upperneck 15.7572 -16.1046 10.2914
head 8.68053 -7.87662 3.97929
rclavicle -1.48032e-014 -1.87852e-014
rhumerus -12.4861 18.8086 -84.9687
rradius 68.4122
rwrist -39.8969
rhand -23.3863 16.9966
rfingers 7.12502
rthumb 3.07003 -12.9611
lclavicle -1.48032e-014 -1.87852e-014
lhumerus -41.9283 22.006 65.7562
lradius 22.639
lwrist -16.6453
lhand -0.826088 33.4842
lfingers 7.12502
lthumb 24.7989 61.8962
rfemur -13.3515 -2.58331 28.3441
rtibia 21.3294
rfoot -5.49168 -2.16479
rtoes 11.3285
lfemur -9.55919 3.48027 -7.62829
ltibia 53.4168
lfoot 13.9067 -21.903
ltoes -7.55713
90
root 8.70388 17.9524 5.39062 -179.72 -7.64145 -174.175
lowerback 4.03269 0.958364 2.78996
upperback 0.405973 1.35159 2.49976
thorax -1.838 0.618684 0.929931
lowerneck -10.1035 -12.004 -15.9618
upperneck 15.7858 -16.2124 10.6701
head 8.76774 -7.91677 4.13282
rclavicle 1.78347e-014 1.97791e-014
rhumerus -12.5484 19.7653 -84.9134
rradius 67.5976
rwrist -40.1946
rhand -23.6245 17.8483
rfingers 7.12502
rthumb 2.84003 -12.1125
lclavicle 1.78347e-014 1.97791e-014
lhumerus -42.0297 23.0861 65.3159
lradius 22.1175
lwrist -17.4934
lhand -0.783306 34.0129
lfingers 7.12502
lthumb 24.8399 62.4193
rfemur -13.3689 -1.96977 28.715
rtibia 21.3037
rfoot -5.47397 -2.58811
rtoes 11.3425
lfemur -10.2024 3.79476 -7.0487
ltibia 54.0674
lfoot 13.4636 -22.4585
ltoes -9.06565
91
root 8.67576 17.9782 5.27405 -179.958 -7.7052 -176.427
lowerback 3.66624 0.90529 0.786019
upperback 0.747775 1.20843 1.79705
thorax -1.30995 0.579362 1.34531
lowerneck -9.75162 -12.1018 -16.3157
upperneck 15.889 -16.4767 11.0508
head 8.84402 -8.05318 4.28518
rclavicle 1.47535e-014 -3.97569e-016
rhumerus -12.7041 20.4404 -85.0723
rradius 66.7989
rwrist -40.4472
rhand -24.0824 18.7885
rfingers 7.12502
rthumb 2.39774 -11.1777
lclavicle 1.47535e-014 -3.97569e-016
lhumerus -42.1117 23.9544 64.7705
lradius 21.5309
lwrist -18.2851
lhand -0.662218 34.2925
lfingers 7.12502
lthumb 24.9559 62.6829
rfemur -12.5529 -3.32238 26.1193
rtibia 21.9391
rfoot -6.33818 -1.3103
rtoes 10.4543
lfemur -9.21245 3.22997 -9.66643
ltibia 53.8781
lfoot 11.7478 -22.2467
ltoes -11.8484
92
root 8.66887 17.9833 5.2002 -180.026 -7.9977 -175.946
lowerback 3.36961 0.83675 1.36109
upperback 0.715505 1.12891 1.85082
thorax -1.1653 0.536312 1.08602
lowerneck -9.02142 -12.2578 -16.7035
upperneck 15.7213 -16.8331 11.3653
head 8.77392 -8.25382 4.42872
rclavicle 1.47784e-014 2.78299e-015
rhumerus -13.0307 20.6131 -85.4072
rradius 65.905
rwrist -40.746
rhand -24.3553 19.7604
rfingers 7.12502
rthumb 2.13418 -10.2087
lclavicle 1.47784e-014 2.78299e-015
lhumerus -42.1169 23.752 64.8692
lradius 21.3168
lwrist -18.2189
lhand -0.407191 34.3247
lfingers 7.12502
lthumb 25.2003 62.6809
rfemur -12.4493 -4.12158 26.5971
rtibia 22.4192
rfoot -7.05942 -0.587831
rtoes 10.6021
lfemur -9.47507 3.01591 -8.96405
ltibia 54.0504
lfoot 10.2194 -22.0665
ltoes -15.0232
93
root 8.64101 17.9991 5.12743 -180.082 -7.32598 -179.326
lowerback 3.62532 1.11913 -1.80418
upperback 0.873018 1.40953 0.790339
thorax -1.19959 0.698449 1.75704
lowerneck -8.52281 -12.3046 -17.0026
upperneck 15.4846 -17.0195 11.8093
head 8.70313 -8.34997 4.61958
rclavicle 4.14746e-014 -3.42904e-015
rhumerus -13.199 20.849 -85.8604
rradius 64.8449
rwrist -41.072
rhand -24.374 20.5623
rfingers 7.12502
rthumb 2.11613 -9.40699
lclavicle 4.14746e-014 -3.42904e-015
lhumerus -41.9942 23.1571 65.2564
lradius 21.3733
lwrist -17.7362
lhand -0.324725 34.354
lfingers 7.12502
lthumb 25.2793 62.6991
rfemur -11.8487 -4.55791 22.7366
rtibia 22.9145
rfoot -7.45275 0.592872
rtoes 11.4619
lfemur -8.57138 3.01456 -12.9255
ltibia 53.7397
lfoot 8.4034 -20.5144
ltoes -16.2173
94
root 8.66106 17.9743 5.12541 -179.688 -7.0884 -177.584
lowerback 3.5284 1.07618 -0.270419
upperback 0.645569 1.41335 1.14179
thorax -1.35057 0.696872 1.25659
lowerneck -8.73379 -12.2353 -16.9702
upperneck 15.6555 -17.0282 12.2416
head 8.83823 -8.32006 4.74542
rclavicle 4.64605e-014 6.60959e-015
rhumerus -13.1122 21.3057 -86.5414
rradius 63.8537
rwrist -41.228
rhand -24.4143 21.338
rfingers 7.12502
rthumb 2.07728 -8.6316
lclavicle 4.64605e-014 6.60959e-015
lhumerus -41.7369 23.2332 65.2211
lradius 21.3632
lwrist -17.73
lhand -0.379814 34.1996
lfingers 7.12502
lthumb 25.2265 62.5521
rfemur -12.6865 -3.56158 24.8871
rtibia 23.0571
rfoot -7.56122 -0.441114
rtoes 10.9418
lfemur -9.93995 3.4132 -10.664
ltibia 54.2053
lfoot 7.0546 -20.3245
ltoes -16.0978
